<svg width="336" height="71" viewBox="0 0 336 71" fill="none" xmlns="http://www.w3.org/2000/svg">
<path d="M9.53125 61.0781C3.75 55.5469 0.859375 47 0.859375 35.4375C0.859375 23.8438 3.75 15.2812 9.53125 9.75C15.3438 4.1875 24.0469 1.40625 35.6406 1.40625H46.0938C53.1875 1.40625 59.4531 3.25 64.8906 6.9375C70.3594 10.625 73.0938 15.6719 73.0938 22.0781C73.0938 23.9219 72.5469 25.25 71.4531 26.0625C70.3594 26.8438 69.2969 27.2344 68.2656 27.2344H62.6875C59.8125 27.2344 57.5781 25.5156 55.9844 22.0781C53.6719 17.1406 49.8281 14.6719 44.4531 14.6719H36.1094C29.2656 14.6719 24.625 16.1406 22.1875 19.0781C19.75 22.0156 18.5312 27.4531 18.5312 35.3906C18.5312 43.3281 19.75 48.7812 22.1875 51.75C24.625 54.6875 29.2656 56.1562 36.1094 56.1562H45.4375C50.8125 56.1562 54.6406 53.6875 56.9219 48.75C58.5156 45.2812 60.7656 43.5469 63.6719 43.5469H69.25C70.7188 43.5469 71.875 44.0938 72.7188 45.1875C73.5938 46.2812 74.0312 47.4688 74.0312 48.75C74.0312 55.1562 71.3125 60.2031 65.875 63.8906C60.4375 67.5469 54.1719 69.375 47.0781 69.375H35.6406C24.0469 69.375 15.3438 66.6094 9.53125 61.0781ZM79.3281 51.7969C79.3281 49.9531 79.875 48.6406 80.9688 47.8594C82.0625 47.0469 83.125 46.6406 84.1562 46.6406H89.7344C92.5469 46.6406 94.6875 48.1719 96.1562 51.2344C97.625 54.2969 100.922 55.8281 106.047 55.8281L122.453 56.1562C127.953 56.1562 130.703 54.3594 130.703 50.7656C130.703 48.0469 127.344 45.9062 120.625 44.3438C117.625 43.625 114.312 42.9219 110.688 42.2344C107.062 41.5156 103.453 40.625 99.8594 39.5625C96.2969 38.5 93.0156 37.25 90.0156 35.8125C87.0156 34.375 84.5781 32.4062 82.7031 29.9062C80.8594 27.375 79.9375 24.4062 79.9375 21C79.9375 14.7188 82.1719 9.89062 86.6406 6.51562C91.1094 3.10937 98.7969 1.40625 109.703 1.40625L121.609 1.6875C128.016 1.6875 133.781 3.34375 138.906 6.65625C144.062 9.9375 146.641 14.0469 146.641 18.9844C146.641 20.8281 146.094 22.1562 145 22.9688C143.906 23.7812 142.859 24.1875 141.859 24.1875H136.281C133.469 24.1875 131.328 22.6562 129.859 19.5938C128.391 16.5 125.094 14.9531 119.969 14.9531L105.859 14.6719C100.359 14.6719 97.6094 16.4688 97.6094 20.0625C97.6094 22.0312 99.3438 23.6406 102.812 24.8906C106.312 26.1406 110.531 27.25 115.469 28.2188C120.438 29.1562 125.422 30.2969 130.422 31.6406C135.422 32.9844 139.656 35.2031 143.125 38.2969C146.625 41.3594 148.375 45.1875 148.375 49.7812C148.375 56.0625 146.125 60.9062 141.625 64.3125C137.156 67.6875 129.484 69.375 118.609 69.375L104.406 69.0938C98 69.0938 92.2188 67.4531 87.0625 64.1719C81.9062 60.8594 79.3281 56.7344 79.3281 51.7969ZM167.219 53.8125C171.438 53.8125 173.547 55.9375 173.547 60.1875V63.1406C173.547 65.1094 173 66.6562 171.906 67.7812C170.844 68.9062 169.281 69.4688 167.219 69.4688H161.453C159.391 69.4688 157.812 68.9062 156.719 67.7812C155.656 66.6562 155.125 65.1094 155.125 63.1406V60.1875C155.125 58.125 155.672 56.5469 156.766 55.4531C157.859 54.3594 159.422 53.8125 161.453 53.8125H167.219ZM161.453 32.3438C157.234 32.3438 155.125 30.2188 155.125 25.9688V23.0156C155.125 21.0469 155.672 19.5 156.766 18.375C157.859 17.25 159.422 16.6875 161.453 16.6875H167.219C169.281 16.6875 170.844 17.25 171.906 18.375C173 19.5 173.547 21.0469 173.547 23.0156V25.9688C173.547 30.2188 171.438 32.3438 167.219 32.3438H161.453ZM212.5 69.375C202.125 69.375 194.156 66.5781 188.594 60.9844C183.062 55.3906 180.297 46.8438 180.297 35.3438C180.297 23.8125 183.188 15.2812 188.969 9.75C194.781 4.1875 203.484 1.40625 215.078 1.40625H225.531C232.438 1.40625 238.656 3.0625 244.188 6.375C249.75 9.65625 252.531 13.7656 252.531 18.7031C252.531 20.5469 251.984 21.875 250.891 22.6875C249.797 23.4688 248.734 23.8594 247.703 23.8594H242.125C239.438 23.8594 237.297 22.3281 235.703 19.2656C234.109 16.2031 230.172 14.6719 223.891 14.6719H215.547C208.703 14.6719 204.062 16.1406 201.625 19.0781C199.188 22.0156 197.969 27.4219 197.969 35.2969C197.969 43.1719 199.062 48.625 201.25 51.6562C203.438 54.6562 207.344 56.1562 212.969 56.1562H222.578C227.609 56.1562 231.203 55.2031 233.359 53.2969C235.516 51.3594 236.625 48.5938 236.688 45H226.094C224.875 45 223.828 44.5781 222.953 43.7344C222.109 42.8594 221.688 41.8125 221.688 40.5938V36.9375C221.688 35.7188 222.109 34.6875 222.953 33.8438C223.828 32.9688 224.875 32.5312 226.094 32.5312H249.625C250.844 32.5312 251.875 32.9688 252.719 33.8438C253.594 34.6875 254.031 35.7188 254.031 36.9375V42.1406C254.031 50.8906 251.406 57.625 246.156 62.3438C240.906 67.0312 233.203 69.375 223.047 69.375H212.5ZM325.656 62.0625C319.281 67.6562 309.906 70.4531 297.531 70.4531C285.188 70.4531 275.812 67.6562 269.406 62.0625C263 56.4375 259.797 47.5469 259.797 35.3906C259.797 23.2344 263 14.3594 269.406 8.76562C275.812 3.17188 285.188 0.375 297.531 0.375C309.906 0.375 319.281 3.17188 325.656 8.76562C332.062 14.3594 335.266 23.2344 335.266 35.3906C335.266 47.5469 332.062 56.4375 325.656 62.0625ZM312.859 18.6562C309.703 14.9062 304.594 13.0312 297.531 13.0312C290.5 13.0312 285.391 14.9062 282.203 18.6562C279.047 22.4062 277.469 28 277.469 35.4375C277.469 42.8438 279.047 48.4219 282.203 52.1719C285.391 55.8906 290.5 57.75 297.531 57.75C304.594 57.75 309.703 55.8906 312.859 52.1719C316.016 48.4219 317.594 42.8438 317.594 35.4375C317.594 28 316.016 22.4062 312.859 18.6562Z" fill="white"/>
</svg>
