<svg width="28" height="5" viewBox="0 0 28 5" fill="none" xmlns="http://www.w3.org/2000/svg">
<path d="M0.25 2.45C0.25 1.81667 0.358333 1.375 0.575 1.125C0.791667 0.858333 1.225 0.725 1.875 0.725C2.50833 0.725 2.93333 0.858333 3.15 1.125C3.38333 1.375 3.5 1.81667 3.5 2.45C3.5 3.08333 3.39167 3.525 3.175 3.775C2.95833 4.025 2.525 4.15 1.875 4.15C1.225 4.15 0.791667 4.025 0.575 3.775C0.358333 3.525 0.25 3.08333 0.25 2.45ZM12.2617 2.45C12.2617 1.81667 12.3701 1.375 12.5867 1.125C12.8034 0.858333 13.2367 0.725 13.8867 0.725C14.5201 0.725 14.9451 0.858333 15.1617 1.125C15.3951 1.375 15.5117 1.81667 15.5117 2.45C15.5117 3.08333 15.4034 3.525 15.1867 3.775C14.9701 4.025 14.5367 4.15 13.8867 4.15C13.2367 4.15 12.8034 4.025 12.5867 3.775C12.3701 3.525 12.2617 3.08333 12.2617 2.45ZM24.2734 2.45C24.2734 1.81667 24.3818 1.375 24.5984 1.125C24.8151 0.858333 25.2484 0.725 25.8984 0.725C26.5318 0.725 26.9568 0.858333 27.1734 1.125C27.4068 1.375 27.5234 1.81667 27.5234 2.45C27.5234 3.08333 27.4151 3.525 27.1984 3.775C26.9818 4.025 26.5484 4.15 25.8984 4.15C25.2484 4.15 24.8151 4.025 24.5984 3.775C24.3818 3.525 24.2734 3.08333 24.2734 2.45Z" fill="white"/>
<path d="M0.25 2.45C0.25 1.81667 0.358333 1.375 0.575 1.125C0.791667 0.858333 1.225 0.725 1.875 0.725C2.50833 0.725 2.93333 0.858333 3.15 1.125C3.38333 1.375 3.5 1.81667 3.5 2.45C3.5 3.08333 3.39167 3.525 3.175 3.775C2.95833 4.025 2.525 4.15 1.875 4.15C1.225 4.15 0.791667 4.025 0.575 3.775C0.358333 3.525 0.25 3.08333 0.25 2.45ZM12.2617 2.45C12.2617 1.81667 12.3701 1.375 12.5867 1.125C12.8034 0.858333 13.2367 0.725 13.8867 0.725C14.5201 0.725 14.9451 0.858333 15.1617 1.125C15.3951 1.375 15.5117 1.81667 15.5117 2.45C15.5117 3.08333 15.4034 3.525 15.1867 3.775C14.9701 4.025 14.5367 4.15 13.8867 4.15C13.2367 4.15 12.8034 4.025 12.5867 3.775C12.3701 3.525 12.2617 3.08333 12.2617 2.45ZM24.2734 2.45C24.2734 1.81667 24.3818 1.375 24.5984 1.125C24.8151 0.858333 25.2484 0.725 25.8984 0.725C26.5318 0.725 26.9568 0.858333 27.1734 1.125C27.4068 1.375 27.5234 1.81667 27.5234 2.45C27.5234 3.08333 27.4151 3.525 27.1984 3.775C26.9818 4.025 26.5484 4.15 25.8984 4.15C25.2484 4.15 24.8151 4.025 24.5984 3.775C24.3818 3.525 24.2734 3.08333 24.2734 2.45Z" fill="url(#paint0_linear)"/>
<defs>
<linearGradient id="paint0_linear" x1="-3.53968" y1="-1.68421" x2="8.65079" y2="-1.68421" gradientUnits="userSpaceOnUse">
<stop offset="0.0329761" stop-color="#000AFF"/>
<stop offset="1" stop-color="#B200FF"/>
</linearGradient>
</defs>
</svg>
