<svg width="1198" height="501" viewBox="0 0 1198 501" fill="none" xmlns="http://www.w3.org/2000/svg">
<rect x="0.5" y="0.5" width="1197" height="500" rx="5.5" fill="black"/>
<rect x="0.5" y="0.5" width="1197" height="500" rx="5.5" stroke="#5D5FEF"/>
<rect x="0.5" y="0.5" width="1197" height="500" rx="5.5" stroke="url(#paint0_linear)"/>
<path d="M44.5735 30C44.5735 28.067 46.1405 26.5 48.0735 26.5H224.079C226.012 26.5 227.579 28.067 227.579 30V69.9169H44.5735V30Z" fill="black" stroke="#5D5FEF"/>
<path d="M268.09 83.7676C268.09 81.8346 269.657 80.2676 271.59 80.2676H447.595C449.528 80.2676 451.095 81.8346 451.095 83.7676V123.684H268.09V83.7676Z" fill="black" stroke="#5D5FEF"/>
<path d="M500.636 199.485C500.636 197.552 502.203 195.985 504.136 195.985H680.142C682.075 195.985 683.642 197.552 683.642 199.485V239.402H500.636V199.485Z" fill="black" stroke="#5D5FEF"/>
<path d="M268.09 315.203C268.09 313.27 269.657 311.703 271.59 311.703H447.595C449.528 311.703 451.095 313.27 451.095 315.203V355.12H268.09V315.203Z" fill="black" stroke="#5D5FEF"/>
<path d="M44.5735 145.718C44.5735 143.785 46.1405 142.218 48.0735 142.218H224.079C226.012 142.218 227.579 143.785 227.579 145.718V185.635H44.5735V145.718Z" fill="black" stroke="#5D5FEF"/>
<path d="M44.5735 261.436C44.5735 259.503 46.1405 257.936 48.0735 257.936H224.079C226.012 257.936 227.579 259.503 227.579 261.436V301.352H44.5735V261.436Z" fill="black" stroke="#5D5FEF"/>
<path d="M44.5735 377.153C44.5735 375.22 46.1405 373.653 48.0735 373.653H224.079C226.012 373.653 227.579 375.22 227.579 377.153V417.07H44.5735V377.153Z" fill="black" stroke="#5D5FEF"/>
<path d="M44.5735 73.2544H227.579V113.171C227.579 115.104 226.012 116.671 224.079 116.671H48.0735C46.1405 116.671 44.5735 115.104 44.5735 113.171V73.2544Z" fill="black" stroke="#5D5FEF"/>
<path d="M268.09 127.022H451.095V166.939C451.095 168.872 449.528 170.439 447.595 170.439H271.59C269.657 170.439 268.09 168.872 268.09 166.939V127.022Z" fill="black" stroke="#5D5FEF"/>
<path d="M500.636 242.74H683.642V282.657C683.642 284.59 682.075 286.157 680.142 286.157H504.136C502.203 286.157 500.636 284.59 500.636 282.657V242.74Z" fill="black" stroke="#5D5FEF"/>
<path d="M268.09 358.458H451.095V398.375C451.095 400.308 449.528 401.875 447.595 401.875H271.59C269.657 401.875 268.09 400.308 268.09 398.375V358.458Z" fill="black" stroke="#5D5FEF"/>
<path d="M44.5735 188.972H227.579V233.565C227.579 235.498 226.012 237.065 224.079 237.065H48.0735C46.1405 237.065 44.5735 235.498 44.5735 233.565V188.972Z" fill="black" stroke="#5D5FEF"/>
<path d="M44.5735 304.69H227.579V349.282C227.579 351.215 226.012 352.782 224.079 352.782H48.0735C46.1405 352.782 44.5735 351.215 44.5735 349.282V304.69Z" fill="black" stroke="#5D5FEF"/>
<path d="M44.5735 420.408H227.579V465C227.579 466.933 226.012 468.5 224.079 468.5H48.0735C46.1405 468.5 44.5735 466.933 44.5735 465V420.408Z" fill="black" stroke="#5D5FEF"/>
<rect x="51.9753" y="33.0132" width="25.964" height="32.7282" rx="3" fill="#272B9C"/>
<rect x="275.492" y="86.7808" width="25.964" height="32.7282" rx="3" fill="#272B9C"/>
<rect x="508.039" y="202.499" width="25.964" height="32.7282" rx="3" fill="#272B9C"/>
<rect x="275.492" y="318.216" width="25.964" height="32.7282" rx="3" fill="#272B9C"/>
<rect x="51.9753" y="148.731" width="25.964" height="32.7282" rx="3" fill="#272B9C"/>
<rect x="51.9753" y="264.449" width="25.964" height="32.7282" rx="3" fill="#272B9C"/>
<rect x="51.9753" y="380.166" width="25.964" height="32.7282" rx="3" fill="#272B9C"/>
<rect x="51.9753" y="79.7676" width="25.964" height="32.7282" rx="3" fill="#272B9C"/>
<rect x="275.492" y="133.536" width="25.964" height="32.7282" rx="3" fill="#272B9C"/>
<rect x="508.039" y="249.253" width="25.964" height="32.7282" rx="3" fill="#272B9C"/>
<rect x="275.492" y="364.971" width="25.964" height="32.7282" rx="3" fill="#272B9C"/>
<rect x="51.9753" y="195.485" width="25.964" height="32.7282" rx="3" fill="#272B9C"/>
<rect x="51.9753" y="311.203" width="25.964" height="32.7282" rx="3" fill="#272B9C"/>
<rect x="51.9753" y="426.921" width="25.964" height="32.7282" rx="3" fill="#272B9C"/>
<rect x="190.827" y="33.0132" width="25.964" height="32.7282" rx="3" fill="#272B9C"/>
<rect x="414.343" y="86.7808" width="25.964" height="32.7282" rx="3" fill="#272B9C"/>
<rect x="646.89" y="202.499" width="25.964" height="32.7282" rx="3" fill="#272B9C"/>
<rect x="414.343" y="318.216" width="25.964" height="32.7282" rx="3" fill="#272B9C"/>
<rect x="190.827" y="148.731" width="25.964" height="32.7282" rx="3" fill="#272B9C"/>
<rect x="190.827" y="264.449" width="25.964" height="32.7282" rx="3" fill="#272B9C"/>
<rect x="190.827" y="380.166" width="25.964" height="32.7282" rx="3" fill="#272B9C"/>
<rect x="190.827" y="79.7676" width="25.964" height="32.7282" rx="3" fill="#272B9C"/>
<rect x="414.343" y="133.536" width="25.964" height="32.7282" rx="3" fill="#272B9C"/>
<rect x="646.89" y="249.253" width="25.964" height="32.7282" rx="3" fill="#272B9C"/>
<rect x="414.343" y="364.971" width="25.964" height="32.7282" rx="3" fill="#272B9C"/>
<rect x="190.827" y="195.485" width="25.964" height="32.7282" rx="3" fill="#272B9C"/>
<rect x="190.827" y="311.203" width="25.964" height="32.7282" rx="3" fill="#272B9C"/>
<rect x="190.827" y="426.921" width="25.964" height="32.7282" rx="3" fill="#272B9C"/>
<rect x="85.8418" y="41.1953" width="54.1857" height="18.7018" rx="8" fill="#272B9C"/>
<rect x="309.358" y="94.9629" width="54.1857" height="18.7018" rx="8" fill="#272B9C"/>
<rect x="541.905" y="210.681" width="54.1857" height="18.7018" rx="8" fill="#272B9C"/>
<rect x="309.358" y="326.398" width="54.1857" height="18.7018" rx="8" fill="#272B9C"/>
<rect x="85.8418" y="156.913" width="54.1857" height="18.7018" rx="8" fill="#272B9C"/>
<rect x="85.8418" y="272.63" width="54.1857" height="18.7018" rx="8" fill="#272B9C"/>
<rect x="85.8418" y="388.348" width="54.1857" height="18.7018" rx="8" fill="#272B9C"/>
<rect x="85.8418" y="87.9497" width="54.1857" height="18.7018" rx="8" fill="#272B9C"/>
<rect x="309.358" y="141.718" width="54.1857" height="18.7018" rx="8" fill="#272B9C"/>
<rect x="541.905" y="257.436" width="54.1857" height="18.7018" rx="8" fill="#272B9C"/>
<rect x="309.358" y="373.153" width="54.1857" height="18.7018" rx="8" fill="#272B9C"/>
<rect x="85.8418" y="203.667" width="54.1857" height="18.7018" rx="8" fill="#272B9C"/>
<rect x="85.8418" y="319.385" width="54.1857" height="18.7018" rx="8" fill="#272B9C"/>
<rect x="85.8418" y="435.103" width="54.1857" height="18.7018" rx="8" fill="#272B9C"/>
<line x1="228.079" y1="73.4233" x2="249.528" y2="73.4233" stroke="#5D5FEF"/>
<line x1="451.595" y1="127.191" x2="473.044" y2="127.191" stroke="#5D5FEF"/>
<line x1="451.595" y1="358.626" x2="473.044" y2="358.626" stroke="#5D5FEF"/>
<line x1="249.528" y1="127.191" x2="267.589" y2="127.191" stroke="#5D5FEF"/>
<line x1="473.044" y1="242.909" x2="500.137" y2="242.909" stroke="#5D5FEF"/>
<line x1="249.528" y1="358.626" x2="267.589" y2="358.626" stroke="#5D5FEF"/>
<line x1="250.028" y1="72.7544" x2="250.028" y2="189.641" stroke="#5D5FEF"/>
<line x1="473.544" y1="126.522" x2="473.544" y2="359.127" stroke="#5D5FEF"/>
<line x1="250.028" y1="304.19" x2="250.028" y2="421.076" stroke="#5D5FEF"/>
<line x1="228.079" y1="189.141" x2="249.528" y2="189.141" stroke="#5D5FEF"/>
<line x1="228.079" y1="304.859" x2="249.528" y2="304.859" stroke="#5D5FEF"/>
<line x1="228.079" y1="420.577" x2="249.528" y2="420.577" stroke="#5D5FEF"/>
<defs>
<linearGradient id="paint0_linear" x1="0" y1="0" x2="880" y2="501" gradientUnits="userSpaceOnUse">
<stop stop-color="#9419C1"/>
<stop offset="1" stop-color="#272B9C"/>
</linearGradient>
</defs>
</svg>
